<svg xmlns="http://www.w3.org/2000/svg" viewBox="0 0 1200 720" role="img" aria-label="Risk scores in cyber intelligence illustration">
  <rect width="1200" height="720" fill="#080808"/>
  <rect x="64" y="64" width="1072" height="592" fill="#111111" stroke="#3a3a3a"/>
  <circle cx="1000" cy="150" r="170" fill="#8d867a" opacity=".22"/>
  <circle cx="230" cy="620" r="190" fill="#d8d1c4" opacity=".08"/>
  <g stroke="#334155" stroke-width="2" opacity=".55">
    <path d="M120 160 H1080"/><path d="M120 202 H1080"/><path d="M120 244 H1080"/><path d="M120 286 H1080"/><path d="M120 328 H1080"/><path d="M120 370 H1080"/><path d="M120 412 H1080"/><path d="M120 454 H1080"/><path d="M120 496 H1080"/><path d="M120 538 H1080"/>
    <path d="M180 120 V600"/><path d="M300 120 V600"/><path d="M420 120 V600"/><path d="M540 120 V600"/><path d="M660 120 V600"/><path d="M780 120 V600"/><path d="M900 120 V600"/><path d="M1020 120 V600"/>
  </g>
  <g fill="#8d867a"><rect x="200" y="360" width="90" height="110" rx="14"/><rect x="330" y="300" width="90" height="170" rx="14"/><rect x="460" y="250" width="90" height="220" rx="14"/><rect x="590" y="325" width="90" height="145" rx="14"/><rect x="720" y="210" width="90" height="260" rx="14"/></g><path d="M190 270c160-80 280-20 390-76 108-55 205-26 292 18" fill="none" stroke="#d8d1c4" stroke-width="9"/>
  <text x="110" y="170" fill="#d8d1c4" font-family="Arial, sans-serif" font-size="28" font-weight="700">mehfooz research</text>
  <text x="110" y="535" fill="#ffffff" font-family="Arial, sans-serif" font-size="54" font-weight="800">Risk scores in cyber intelligence</text>
</svg>